<svg xmlns="http://www.w3.org/2000/svg" xmlns:xlink="http://www.w3.org/1999/xlink" width="139" height="139" viewBox="0 0 139 139">
  <defs>
    <linearGradient id="linear-gradient" y1="0.73" x2="0.698" gradientUnits="objectBoundingBox">
      <stop offset="0" stop-color="#a8b3ff"/>
      <stop offset="1" stop-color="#c1caff" stop-opacity="0.788"/>
    </linearGradient>
    <linearGradient id="linear-gradient-2" x1="0.5" y1="0" x2="0.5" y2="1" xlink:href="#linear-gradient"/>
  </defs>
  <g id="done_check" transform="translate(-119 -338)">
    <circle id="Ellipse_17" data-name="Ellipse 17" cx="69.5" cy="69.5" r="69.5" transform="translate(119 338)" fill="url(#linear-gradient)"/>
    <circle id="Ellipse_16" data-name="Ellipse 16" cx="61.5" cy="61.5" r="61.5" transform="translate(127 346)" fill="url(#linear-gradient-2)"/>
    <path id="Vector" d="M20.83,58.055,1.2,38.844a3.779,3.779,0,0,1,.977-6.194,3.733,3.733,0,0,1,4.114.657L22.609,49.272,52.107,1.71a3.759,3.759,0,0,1,6.281,4.13l-31.937,51.5c0,.005-.011.011-.016.016a3.586,3.586,0,0,1-.3.5,3.39,3.39,0,0,1-.643.469c-.059.038-.107.081-.166.119a3.728,3.728,0,0,1-1.05.442c-.123.032-.241.065-.364.086a3.592,3.592,0,0,1-.9.011,3.529,3.529,0,0,1-.627-.1,3.778,3.778,0,0,1-.616-.248,3.012,3.012,0,0,1-.515-.2c-.113-.081-.177-.2-.284-.286-.048-.038-.1-.049-.139-.086Z" transform="translate(159 378)" fill="#2d45b9"/>
  </g>
</svg>
