<svg xmlns="http://www.w3.org/2000/svg" width="26.025" height="26" viewBox="0 0 26.025 26">
  <path id="schedule" d="M14.012,3.995v1a1.023,1.023,0,0,1-1.9.423,1.053,1.053,0,0,1-.094-.423v-1h-3a1.042,1.042,0,0,1-.755-1.653A.879.879,0,0,1,9.017,2q1.5,0,3-.009V1a.869.869,0,0,1,.05-.313A1.023,1.023,0,0,1,13.033,0a1,1,0,0,1,.979,1v.977c2-.012,3.995-.023,5.993-.013V1a1,1,0,0,1,.979-1h.039A1,1,0,0,1,22,1v.982L23.075,2A3.079,3.079,0,0,1,26,4.957q.057,9.026,0,18.053a3.088,3.088,0,0,1-2.959,2.959q-10.025.062-20.05,0A3.074,3.074,0,0,1,.029,23.01q-.057-9.027,0-18.053A3.07,3.07,0,0,1,3.022,2h1V1a.848.848,0,0,1,.05-.313A1.022,1.022,0,0,1,5.042,0a1,1,0,0,1,.979,1V4.994a1.023,1.023,0,0,1-1.886.459,1.036,1.036,0,0,1-.111-.459v-1c-.342,0-.683,0-1.024,0a1.035,1.035,0,0,0-.974.974q-.167,9.012,0,18.028A1.035,1.035,0,0,0,3,23.971q10.011.186,20.026,0A1.035,1.035,0,0,0,24,23q.167-9.012,0-18.028A1.035,1.035,0,0,0,23,4H22v1a1.026,1.026,0,0,1-1.886.459A1.049,1.049,0,0,1,20,4.994V4H14.011ZM5.022,19.976a1,1,0,1,1-1,1A1,1,0,0,1,5.022,19.976Zm4,0a1,1,0,1,1-1,1A1,1,0,0,1,9.017,19.976Zm3.995,0a1,1,0,1,1-1,1A1,1,0,0,1,13.012,19.976ZM5.022,15.981a1,1,0,1,1-1,1A1,1,0,0,1,5.022,15.981Zm4,0a1,1,0,1,1-1,1A1,1,0,0,1,9.017,15.981Zm3.995,0a1,1,0,1,1-1,1A1,1,0,0,1,13.012,15.981Zm3.995,0a1,1,0,1,1-1,1A1,1,0,0,1,17.007,15.981Zm4,0a1,1,0,1,1-1,1A1,1,0,0,1,21,15.981ZM9.017,11.986a1,1,0,1,1-1,1A1,1,0,0,1,9.017,11.986Zm3.995,0a1,1,0,1,1-1,1A1,1,0,0,1,13.012,11.986Zm3.995,0a1,1,0,1,1-1,1A1,1,0,0,1,17.007,11.986Zm4,0a1,1,0,1,1-1,1A1,1,0,0,1,21,11.986Z" transform="translate(0)" fill="#fff1f1" fill-rule="evenodd"/>
</svg>
