<svg xmlns="http://www.w3.org/2000/svg" width="235.816" height="219.56" viewBox="0 0 235.816 219.56">
  <g id="Online_Doctor-amico_1_1" data-name="Online Doctor-amico(1) 1" transform="translate(-7.346 -18.389)">
    <g id="freepik--Floor--inject-2">
      <path id="freepik--floor--inject-2-2" data-name="freepik--floor--inject-2" d="M235.816,60.362c0,33.337-52.789,60.362-117.908,60.362S0,93.7,0,60.362,52.789,0,117.908,0,235.816,27.025,235.816,60.362Z" transform="translate(7.346 117.226)" fill="#fafafa"/>
    </g>
    <g id="freepik--Shadows--inject-2">
      <path id="freepik--Shadow--inject-2" d="M64.25,19.844c0,10.96-14.383,19.844-32.125,19.844S0,30.8,0,19.844,14.383,0,32.125,0,64.25,8.884,64.25,19.844Z" transform="translate(160.347 176.867)" fill="#e0e0e0"/>
      <path id="freepik--shadow--inject-2-2" data-name="freepik--shadow--inject-2" d="M91.479,12.147a.682.682,0,0,1,0,1.3l-6.091,3.582L29.328,49.311l-6.081,3.512a2.47,2.47,0,0,1-2.208,0L.459,40.937a.672.672,0,0,1,0-1.275L68.685.266a2.42,2.42,0,0,1,2.208,0L91.479,12.147Z" transform="translate(24.735 148.956)" fill="#e0e0e0"/>
    </g>
    <g id="freepik--Plants--inject-2">
      <g id="freepik--plants--inject-2-2" data-name="freepik--plants--inject-2">
        <path id="Vector" d="M3.181,51.171,0,49.482S.311,33.95,3.532,21.921C6.832,9.606,16.435-4,25.51,1.1S18.456,16.675,13.6,26.787,3.181,51.171,3.181,51.171Z" transform="translate(205.568 138.159)" fill="#90caf9"/>
        <path id="Vector-2" data-name="Vector" d="M3.181,51.171,0,49.482S.311,33.95,3.532,21.921C6.832,9.606,16.435-4,25.51,1.1S18.456,16.675,13.6,26.787,3.181,51.171,3.181,51.171Z" transform="translate(205.568 138.159)" opacity="0.15"/>
        <path id="Vector-3" data-name="Vector" d="M.311,44.471A.321.321,0,0,1,0,44.14C.682,20.038,11.219,5.322,20.037.046A.322.322,0,1,1,20.368.6C11.688,5.791,1.319,20.315.642,44.155a.321.321,0,0,1-.331.316Z" transform="translate(208.018 141.174)" fill="#fff"/>
        <path id="Vector-4" data-name="Vector" d="M2.841,32.807,0,31.35s.351-7.627,6.195-17.567C11.382,4.955,21.894-1.961,26.31.5c3.428,1.907,4.219,6.086.934,8.867S8.793,17.987,2.841,32.807Z" transform="translate(207.347 157.265)" fill="#90caf9"/>
        <path id="Vector-5" data-name="Vector" d="M.252,27.558A.41.41,0,0,1,0,27.213a3.794,3.794,0,0,1,.371-1.363q.212-.642.445-1.289a36.413,36.413,0,0,1,3.112-6.422,42.421,42.421,0,0,1,3.952-5.459,49.582,49.582,0,0,1,4.327-4.5q2.02-1.862,4.214-3.522,1.769-1.339,3.626-2.539c.835-.553,1.685-1.047,2.554-1.541.311-.188.642-.375.988-.543A.371.371,0,1,1,23.915.7l-.158.079c-.558.287-1.1.6-1.635.914-1.032.6-2.02,1.245-3.008,1.917-1.339.914-2.643,1.887-3.9,2.915a55.24,55.24,0,0,0-4.3,3.893,46.965,46.965,0,0,0-4.2,4.871,39.268,39.268,0,0,0-3.631,5.834A34.438,34.438,0,0,0,1.635,24.4c-.217.573-.415,1.146-.6,1.729-.1.311-.272,1.531-.766,1.433Z" transform="translate(208.779 160.078)" fill="#fff"/>
      </g>
      <g id="freepik--plants--inject-2-3" data-name="freepik--plants--inject-2">
        <path id="Vector-6" data-name="Vector" d="M23.228,33.675C19.691,18.618,8.62,13.239,2.593,8.59S2.139-1.048,8.18.192s12,6.664,15.808,14.682,3.73,17.7,3.73,17.7Z" transform="translate(20.121 143.206)" fill="#90caf9"/>
        <path id="Vector-7" data-name="Vector" d="M23.228,33.675C19.691,18.618,8.62,13.239,2.593,8.59S2.139-1.048,8.18.192s12,6.664,15.808,14.682,3.73,17.7,3.73,17.7Z" transform="translate(20.121 143.206)" opacity="0.15"/>
        <path id="Vector-8" data-name="Vector" d="M20.445,28.028A.247.247,0,0,1,20.2,27.8C19.269,12.289,6.494,2.206.181.487a.247.247,0,0,1-.173-.3A.252.252,0,0,1,.315.008c6.422,1.754,19.434,12,20.377,27.758a.257.257,0,0,1-.232.262Z" transform="translate(24.875 146.083)" fill="#fff"/>
        <path id="Vector-9" data-name="Vector" d="M28.331,29.977A12.113,12.113,0,0,1,24,33.421c-2.752,1.284-6.353,1.734-9.006-.109a9.386,9.386,0,0,1-3.8-5.77,20.494,20.494,0,0,0-.687-3.483c-1.156-2.9-4.777-2.011-7.084-3.191C1.215,19.722.8,17.746,1.536,15.523c.257-.845.9-1.5,1.245-2.327a3.722,3.722,0,0,0-.494-3.325A23.831,23.831,0,0,1,.375,6.839,4.94,4.94,0,0,1,3.537.214c2.04-.608,4.239.173,6.121,1.161a8.415,8.415,0,0,0,5.167,1.368,8.732,8.732,0,0,1,4.135,0,4.673,4.673,0,0,1,2.361,2.075c.889,1.507.8,3.028,1.24,4.634.553,2.016,2.332,3.364,3.863,4.634a16.246,16.246,0,0,1,2.193,1.685,9.2,9.2,0,0,1,1.689,3.092,11.9,11.9,0,0,1-1.976,11.115Z" transform="translate(20.289 159.106)" fill="#90caf9"/>
        <path id="Vector-10" data-name="Vector" d="M.208,1.492A.267.267,0,0,1,.138,1a14.657,14.657,0,0,1,12.493.879.262.262,0,0,1,.1.361.267.267,0,0,1-.361.109A14.133,14.133,0,0,0,.341,1.477.252.252,0,0,1,.183,1.5Z" transform="translate(27.639 173.552)" fill="#fff"/>
        <path id="Vector-11" data-name="Vector" d="M19.587,26.895a.247.247,0,0,1-.252-.237C18.876,15.493,7.667,3.687.153.476A.247.247,0,0,1,.02.149.252.252,0,0,1,.351.021C7.983,3.291,19.365,15.3,19.834,26.648a.252.252,0,0,1-.242.262Z" transform="translate(25.485 162.273)" fill="#fff"/>
      </g>
    </g>
    <g id="freepik--Device--inject-2">
      <g id="freepik--Mobile--inject-2">
        <path id="Vector-12" data-name="Vector" d="M59.695,1.347V133.032a4.2,4.2,0,0,1-1.892,3.28L1.892,168.59C.85,169.2,0,168.709,0,167.5V35.838a4.184,4.184,0,0,1,1.892-3.3L57.8.27c1.042-.622,1.892-.128,1.892,1.077ZM56.973,13.183h0a1.082,1.082,0,0,0-1.625-.934L4.15,41.825a3.221,3.221,0,0,0-1.615,2.791v109.5c0,1.037.731,1.433,1.62.939l51.2-29.571a2.617,2.617,0,0,0,1.62-2.2Z" transform="translate(49.138 29.37)" fill="#455a64"/>
        <path id="Vector-13" data-name="Vector" d="M54.439,111.173a2.617,2.617,0,0,1-1.62,2.2L1.62,142.947c-.889.494-1.62.1-1.62-.939V32.513a3.221,3.221,0,0,1,1.615-2.791L52.814.146a1.082,1.082,0,0,1,1.625.934h0Z" transform="translate(51.672 41.473)" fill="#263238"/>
        <path id="Vector-14" data-name="Vector" d="M0,59.641V0L53.806,30.3a4.644,4.644,0,0,1-.988.716L1.62,60.579c-.889.514-1.62.1-1.62-.939Z" transform="translate(51.672 123.841)" fill="#37474f"/>
        <path id="Vector-15" data-name="Vector" d="M48.674,109.851,0,137.954V30.91a3.221,3.221,0,0,1,1.615-2.791L50.294,0V107.648a2.617,2.617,0,0,1-1.62,2.2Z" transform="translate(51.672 43.077)" fill="#90caf9"/>
        <path id="Vector-16" data-name="Vector" d="M7.608,138.211a4.234,4.234,0,0,1-3.547-.119L1.9,136.843A4.169,4.169,0,0,1,0,133.568V1.867A3.626,3.626,0,0,1,.326.455C.4.3.469.153.553,0L6.481,3.458a5.5,5.5,0,0,0-.326.692A3.5,3.5,0,0,0,5.923,5.32V136.991c.03,1.111.751,1.615,1.685,1.22Z" transform="translate(43.185 59.883)" fill="#263238"/>
        <path id="Vector-17" data-name="Vector" d="M4.678,0c1.21,0,1.339,1.359,1.339,1.941a7.563,7.563,0,0,1-1,3.316A7.563,7.563,0,0,1,2.643,7.781a2.682,2.682,0,0,1-1.3.415C.128,8.2,0,6.837,0,6.254A7.588,7.588,0,0,1,3.369.41,2.756,2.756,0,0,1,4.678,0Z" transform="translate(75.977 171.566)" fill="#90caf9"/>
        <path id="Vector-18" data-name="Vector" d="M.929.128c.494-.3.924-.059.924.534a2.05,2.05,0,0,1-.271.91,2.05,2.05,0,0,1-.652.69A.568.568,0,0,1,0,1.728,2.03,2.03,0,0,1,.929.128Z" transform="translate(78.017 47.746)" fill="#263238"/>
        <path id="Vector-19" data-name="Vector" d="M.82.112c.454-.262.82-.049.82.494a1.8,1.8,0,0,1-.24.807,1.8,1.8,0,0,1-.58.61C.366,2.285,0,2.073,0,1.529A1.813,1.813,0,0,1,.82.112Z" transform="translate(72.159 55.562)" fill="#263238"/>
        <path id="Vector-20" data-name="Vector" d="M.909,5.433l9.183-5.3c.494-.291.909-.084.909.459A1.976,1.976,0,0,1,10.092,2.1L.909,7.4C.415,7.7,0,7.488,0,6.944A1.976,1.976,0,0,1,.909,5.433Z" transform="translate(74.811 48.621)" fill="#263238"/>
        <path id="Vector-21" data-name="Vector" d="M65.05,4.686c-.138-.988-.924-1.339-1.867-.79L7.262,36.178a3.8,3.8,0,0,0-1.334,1.413L0,34.133a3.858,3.858,0,0,1,1.339-1.4L57.225.452a4.184,4.184,0,0,1,3.784,0L63.183,1.7A4.258,4.258,0,0,1,65.05,4.686Z" transform="translate(43.763 25.73)" fill="#37474f"/>
        <g id="freepik--device--inject-2-2" data-name="freepik--device--inject-2">
          <g id="freepik--mobile--inject-2-2" data-name="freepik--mobile--inject-2">
            <path id="Vector-22" data-name="Vector" d="M2.253,5.524a2.08,2.08,0,0,1-1.892.035A.6.6,0,0,1,0,5.065v-.8A.721.721,0,0,1,.425,3.7L6.417.244a2.1,2.1,0,0,1,1.9-.035A.613.613,0,0,1,8.67.7v.815a.726.726,0,0,1-.425.573Z" transform="translate(91.894 28.888)" fill="#90caf9"/>
            <path id="Vector-23" data-name="Vector" d="M2.253,5.524a2.08,2.08,0,0,1-1.892.035A.6.6,0,0,1,0,5.065v-.8A.721.721,0,0,1,.425,3.7L6.417.244a2.1,2.1,0,0,1,1.9-.035A.613.613,0,0,1,8.67.7v.815a.726.726,0,0,1-.425.573Z" transform="translate(91.894 28.888)" opacity="0.25"/>
            <path id="Vector-24" data-name="Vector" d="M2.256,4.764a2.095,2.095,0,0,1-1.892.03C-.145,4.5-.115,4.013.423,3.7L6.415.244a2.1,2.1,0,0,1,1.9-.035c.5.291.479.781-.064,1.1L2.256,4.764Z" transform="translate(91.891 28.863)" fill="#90caf9"/>
            <path id="Vector-25" data-name="Vector" d="M2.256,4.764a2.095,2.095,0,0,1-1.892.03C-.145,4.5-.115,4.013.423,3.7L6.415.244a2.1,2.1,0,0,1,1.9-.035c.5.291.479.781-.064,1.1L2.256,4.764Z" transform="translate(91.891 28.863)" opacity="0.3"/>
          </g>
        </g>
        <g id="freepik--device--inject-2-3" data-name="freepik--device--inject-2">
          <g id="freepik--mobile--inject-2-3" data-name="freepik--mobile--inject-2">
            <path id="Vector-26" data-name="Vector" d="M2.524,16.44a.721.721,0,0,1-.282.652c-.124.074-.583.341-.711.405a.627.627,0,0,1-.613-.049A2.095,2.095,0,0,1,0,15.792V1.111A.721.721,0,0,1,.286.459C.4.385.859.133.972.064A.6.6,0,0,1,1.6.118a2.085,2.085,0,0,1,.919,1.655Z" transform="translate(44.411 79.821)" fill="#90caf9"/>
            <path id="Vector-27" data-name="Vector" d="M2.524,16.44a.721.721,0,0,1-.282.652c-.124.074-.583.341-.711.405a.627.627,0,0,1-.613-.049A2.095,2.095,0,0,1,0,15.792V1.111A.721.721,0,0,1,.286.459C.4.385.859.133.972.064A.6.6,0,0,1,1.6.118a2.085,2.085,0,0,1,.919,1.655Z" transform="translate(44.411 79.821)" opacity="0.3"/>
            <path id="Vector-28" data-name="Vector" d="M1.833,1.793V16.474c0,.622-.41.889-.919.6A2.095,2.095,0,0,1,0,15.417V.721c0-.627.41-.894.914-.6a2.1,2.1,0,0,1,.661.726,2.1,2.1,0,0,1,.257.948Z" transform="translate(44.416 80.211)" fill="#90caf9"/>
            <path id="Vector-29" data-name="Vector" d="M1.833,1.793V16.474c0,.622-.41.889-.919.6A2.095,2.095,0,0,1,0,15.417V.721c0-.627.41-.894.914-.6a2.1,2.1,0,0,1,.661.726,2.1,2.1,0,0,1,.257.948Z" transform="translate(44.416 80.211)" opacity="0.4"/>
            <path id="Vector-30" data-name="Vector" d="M2.519,8.689a.716.716,0,0,1-.282.647c-.124.074-.583.341-.711.405a.6.6,0,0,1-.608-.064A2.095,2.095,0,0,1,0,8.027V1.111A.721.721,0,0,1,.286.459C.4.385.859.133.972.064A.6.6,0,0,1,1.6.118a2.085,2.085,0,0,1,.919,1.655Z" transform="translate(44.411 99.497)" fill="#90caf9"/>
            <path id="Vector-31" data-name="Vector" d="M2.519,8.689a.716.716,0,0,1-.282.647c-.124.074-.583.341-.711.405a.6.6,0,0,1-.608-.064A2.095,2.095,0,0,1,0,8.027V1.111A.721.721,0,0,1,.286.459C.4.385.859.133.972.064A.6.6,0,0,1,1.6.118a2.085,2.085,0,0,1,.919,1.655Z" transform="translate(44.411 99.497)" opacity="0.3"/>
            <path id="Vector-32" data-name="Vector" d="M1.833,1.777V8.693c0,.622-.41.894-.919.6A2.095,2.095,0,0,1,0,7.636V.72C0,.1.41-.174.914.117a2.1,2.1,0,0,1,.657.721,2.1,2.1,0,0,1,.262.939Z" transform="translate(44.416 99.864)" fill="#90caf9"/>
            <path id="Vector-33" data-name="Vector" d="M1.833,1.777V8.693c0,.622-.41.894-.919.6A2.095,2.095,0,0,1,0,7.636V.72C0,.1.41-.174.914.117a2.1,2.1,0,0,1,.657.721,2.1,2.1,0,0,1,.262.939Z" transform="translate(44.416 99.864)" opacity="0.4"/>
          </g>
        </g>
      </g>
      <g id="freepik--Doctor--inject-2">
        <path id="Vector-34" data-name="Vector" d="M2.183,11.555A5.049,5.049,0,0,1,3.438,7.173c.652-.7,1.522-1.2,2.134-1.936A2.752,2.752,0,0,0,6.214,3.5a2.164,2.164,0,0,1,.119-1.191C6.866,1.349,8.259.988,9.247.855A64.808,64.808,0,0,1,17.719.326c2.752.01,5.513-.529,8.27-.242a9.564,9.564,0,0,1,5.434,2.2c1.541,1.393.7,6.857.7,6.857,5.207,3.725,3.181,12.646-1.067,15.215-3.512,2.129-2,7.958-5.434,10.231a17.784,17.784,0,0,1-10.947,2.87,15.482,15.482,0,0,1-6.689-1.976,8.131,8.131,0,0,1-2.7-2.277L2.9,29.823A17.181,17.181,0,0,1,.4,25.377a8.685,8.685,0,0,1,1.314-7.805c.632-.835,1.457-1.645,1.512-2.692a6.881,6.881,0,0,0-.85-2.618,5.187,5.187,0,0,1-.2-.706Z" transform="translate(61.118 77.459)" fill="#263238"/>
        <path id="Vector-35" data-name="Vector" d="M0,0C4.446.123,5.024,1.072,9.006,5.014c3.31,3.275,14.277,13.4,14.277,13.4l13.14,3.5-3.1,8.018s-2.964-.124-8.892-.128c-3.641,0-4.905-.815-8.571-3.26-1.867-1.25-12.4-8.146-12.4-8.146Z" transform="translate(90.718 96.898)" fill="#e6e6e6"/>
        <path id="Vector-36" data-name="Vector" d="M31.255.573l-7.82,28.6L.538,37.712,0,37.139,6.639,8.487,30.722,0Z" transform="translate(110.957 102.594)" fill="#90caf9"/>
        <path id="Vector-37" data-name="Vector" d="M7.173.573.538,29.225,0,28.652,6.639,0Z" transform="translate(110.957 111.081)" opacity="0.35"/>
        <path id="Vector-38" data-name="Vector" d="M22.9,28.6,0,37.139,6.634,8.487,30.717,0Z" transform="translate(111.496 103.167)" opacity="0.25"/>
        <g id="Group" opacity="0.2">
          <path id="Vector-39" data-name="Vector" d="M5.192,0l-.45,1.65C2.07,1.872.222.632,0,.069Z" transform="translate(130.811 125.866)" opacity="0.2"/>
        </g>
        <g id="Group-2" data-name="Group" opacity="0.1">
          <path id="Vector-40" data-name="Vector" d="M0,5.218.2,4.26C.311,3.731,2.06,3.079,3.912,2.2L8.26.891C10.112.016,11.525-.261,11.416.268l-.2.963Z" transform="translate(123.742 107.804)" opacity="0.1"/>
        </g>
        <path id="Vector-41" data-name="Vector" d="M12.276.964,0,5.282l.178-.608c.1-.336.227-.568,1.428-.958a15.53,15.53,0,0,0,1.734-.632S3.418,1.29,7.03.3C10.315-.6,9.747.8,9.747.8L11.135.327c.756-.2,1.319-.272,1.25.059-.049.331-.109.578-.109.578Z" transform="translate(124.009 104.302)" fill="#37474f"/>
        <path id="Vector-42" data-name="Vector" d="M9.84,1.2c-1.136.494-1.606.766-1.778,1.586-.193.934-.232,1.324-.232,1.324L1.438,6.625s.346-1.378.43-1.838S1.107,4.327,0,4.836L.262,3.69,10.206,0Z" transform="translate(125.259 105.336)" fill="#37474f"/>
        <path id="Vector-43" data-name="Vector" d="M0,5.25l.2-.988C.306,3.733,2.06,3.081,3.912,2.207L8.26.893C10.112.018,11.525-.263,11.416.27s-.2.963-.2.963Z" transform="translate(124.073 107.817)" fill="#37474f"/>
        <path id="Vector-44" data-name="Vector" d="M12.737,1.863c-.459,1.862.153,5.236-.953,8.4a6.174,6.174,0,0,1-4.678,4.08c-3.409.4-5.864-.538-6.7-3.008C-.5,8.666-.073,7.851,3.7,7.381c1.971-.247,5.913-2.05,6.14-2.86S10.924.569,10.924.569C11.882-.533,13.2,0,12.737,1.863Z" transform="translate(128.611 112.399)" fill="#ffa8a7"/>
        <path id="Vector-45" data-name="Vector" d="M22.828,59.756l-2.554,1.482-1.072.618L5.152,69.962,3.236,71.049,0,72.916.988,62.833,2.875,43.311v-.2l.089-.874,2.47-25.525L6.516,5.539,6.9,1.533,7.025.239h.069a6.526,6.526,0,0,1,3.5,0,4.638,4.638,0,0,1,.741.3,8.239,8.239,0,0,1,3.29,3.675,11.5,11.5,0,0,1,.543,1.131,25.238,25.238,0,0,1,1.4,4.535h0A60.088,60.088,0,0,1,18.382,20.29a18.476,18.476,0,0,1-.188,3.557h0A79.04,79.04,0,0,0,18.08,33.2c.415,7.064,2.193,10.265,4.747,26.552Z" transform="translate(79.391 96.417)" fill="#e0e0e0"/>
        <path id="Vector-46" data-name="Vector" d="M34.955,24.463,20.906,32.569l-1.917,1.1-3.236,1.867-2.228,1.284L0,44.623C.143,39.189.207,33.3.079,27.728.04,25.866.025,23.964.1,22.018A43.292,43.292,0,0,1,6.249.385L6.462,0C7,3.226,11.945,5.32,16.391,5.814l.494.044c.558.054,1.136.079,1.734.079h.375A43.932,43.932,0,0,0,32.332,3.285c.494,2.865.988,6.625,1.517,11.021q.356,2.964.721,6.318c.1,1.25.252,2.529.385,3.838Z" transform="translate(63.637 133.8)" fill="#ffa8a7"/>
        <path id="Vector-47" data-name="Vector" d="M37.509,23.9l-1.072.618L22.388,32.624l-1.917,1.1-3.236,1.867-2.228,1.284L1.482,44.677,0,45.532c.074-5.849.123-11.579.119-15.176,0-3.344.074-6.318.257-8.956.361-5.207,1.112-9.124,2.366-12.088A63.726,63.726,0,0,1,7.948,0S9.183,4.169,18.421,4.826h.059q.815.059,1.719.074h.7C32.4,4.9,33.671,2,33.671,2a120.674,120.674,0,0,1,2.663,12.948q.366,2.312.706,4.94c.168,1.284.326,2.618.469,4.011Z" transform="translate(62.155 133.746)" fill="#90caf9"/>
        <path id="Vector-48" data-name="Vector" d="M37.509,23.9l-1.072.618L22.388,32.624l-1.917,1.1-3.236,1.867-2.228,1.284L1.482,44.677,0,45.532c.074-5.849.123-11.579.119-15.176,0-3.344.074-6.318.257-8.956.361-5.207,1.112-9.124,2.366-12.088A63.726,63.726,0,0,1,7.948,0S9.183,4.169,18.421,4.826h.059q.815.059,1.719.074h.7C32.4,4.9,33.671,2,33.671,2a120.674,120.674,0,0,1,2.663,12.948q.366,2.312.706,4.94c.168,1.284.326,2.618.469,4.011Z" transform="translate(62.155 133.746)" opacity="0.4"/>
        <path id="Vector-49" data-name="Vector" d="M10.443,0S9.159,4.08,3.754,6.368L3.5,7.617,1.917,15.279,0,16.376,1.146,7.924,1.64,4.248A14.4,14.4,0,0,0,10.443,0Z" transform="translate(82.626 151.09)" opacity="0.2"/>
        <path id="Vector-50" data-name="Vector" d="M26.291.123c1.635,0,6.684,5.518,10.033,11.8,1.813,3.4,2.327,7.622-1.714,12.034-.529,2.88-.81,9.524-.81,9.524.38,4.253,3.428,17.349,3.873,22.121-5.3,5.039-24.9,9.519-37.672,1.181,1.265-15.62,8.245-24.73,8.245-24.73S5.212,21.079,4.075,16.593A24.915,24.915,0,0,1,3.888,6.219c.37-3.176,2-4.767,5.592-5.646L14.914,0Z" transform="translate(61.72 97.837)" fill="#90caf9"/>
        <path id="Vector-51" data-name="Vector" d="M26.291.123c1.635,0,6.684,5.518,10.033,11.8,1.813,3.4,2.327,7.622-1.714,12.034-.529,2.88-.81,9.524-.81,9.524.38,4.253,3.428,17.349,3.873,22.121-5.3,5.039-24.9,9.519-37.672,1.181,1.265-15.62,8.245-24.73,8.245-24.73S5.212,21.079,4.075,16.593A24.915,24.915,0,0,1,3.888,6.219c.37-3.176,2-4.767,5.592-5.646L14.914,0Z" transform="translate(61.72 97.837)" fill="#fff" opacity="0.7"/>
        <path id="Vector-52" data-name="Vector" d="M22.907,34.042v.39a.8.8,0,0,1,0,.124h0c-.188,1.976-.41,4.075-.647,6.215v.03c-.035.346-.074.692-.114,1.042-.726,6.447-1.591,13.338-2.258,19.612q-.245,2.282-.445,4.446c-.207,2.159-.43,4.525-.657,6.916L5.261,80.621l-1.482.855L0,83.654C.761,76.17,2.534,58.83,3.522,51.006c.114-.884.262-1.769.43-2.648l.133-.642.059-.262c.064-.3.128-.583.2-.874s.133-.538.2-.8c.153-.6.316-1.186.494-1.759.084-.277.163-.553.252-.825s.163-.543.252-.81c.178-.534.351-1.057.534-1.566a.069.069,0,0,1,0-.03c.084-.242.173-.494.262-.721.119-.336.242-.662.366-.988l.148-.39c.074-.178.138-.351.207-.524.242-.608.494-1.186.716-1.724.049-.119.1-.237.153-.351s.128-.282.188-.42c.148-.346.3-.667.44-.988.059-.138.123-.272.183-.4s.143-.3.207-.435l.094-.2.1-.193a.183.183,0,0,1,.035-.069.671.671,0,0,1,.049-.1.416.416,0,0,0,.03-.069A1.783,1.783,0,0,0,9.356,33l.331-.642c0-.035.035-.059.044-.089l.128-.237L5.75,14.988,3.705,6.521V6.382a6.358,6.358,0,0,1,4.337-5.37A30.133,30.133,0,0,1,14.282.084C15.092.035,15.823.015,16.421,0h1.512a.153.153,0,0,1,0,.035c.03.074.114.3.242.642a.859.859,0,0,0,.059.168.212.212,0,0,1,0,.025,121.456,121.456,0,0,1,4.624,15.714c.217,1.067.4,2.109.524,3.1.371,3.087.1,8.255-.474,14.361Z" transform="translate(58.435 97.807)" fill="#fafafa"/>
        <path id="Vector-53" data-name="Vector" d="M8.462,28.351S4.041,31.754,0,43.171a65.447,65.447,0,0,1,5.928-16.3L1.818,9.826,6.97,0c.914,1.917,1.215,4.915.371,10.982-.726,5.261-1.22,7.7-1.22,7.7Z" transform="translate(62.308 102.999)" fill="#e6e6e6"/>
        <path id="Vector-54" data-name="Vector" d="M0,0C1.6,0,1.788.267,3.167,2.114c.82,1.1,6.012,9.673,6.012,9.673S5.049,6.353,1.932,4.7A6.961,6.961,0,0,0,0,3.932Z" transform="translate(86.48 94.033)" fill="#ebebeb"/>
        <path id="Vector-55" data-name="Vector" d="M.391,15.917c0-.494-.049-1.561-.133-2.9C-.152,6.422-.35.494,1.873,0l.193.909C.446,1.26.979,9.742,1.182,12.933c.089,1.373.158,2.47.133,3Z" transform="translate(74.252 96.33)" fill="#90caf9"/>
        <path id="Vector-56" data-name="Vector" d="M1.542,0A2.312,2.312,0,0,1,3.167.53a2.1,2.1,0,0,1,.291,3.038L0,.738A2.312,2.312,0,0,1,1.542,0Z" transform="translate(67.233 68.363)" fill="#263238"/>
        <path id="Vector-57" data-name="Vector" d="M9.034,31.91c0-2.169-5.054-5.434-7.662-9.994S.068,9.858,3.645,8.707c.03,0,.128-.963.143-1.032A8.507,8.507,0,0,1,4.776,5.2,10.8,10.8,0,0,1,12.186.353C23.513-1.3,28.72,3.1,30.8,7.946a11.792,11.792,0,0,1,.879,5.147A5.928,5.928,0,0,1,27.095,18.6Z" transform="translate(67.229 62.543)" fill="#263238"/>
        <path id="Vector-58" data-name="Vector" d="M21.652,0c2.218.988,4.327,4.362,4.293,13.857-.03,8.052-2.5,10.087-3.745,10.685s-3.68.291-6.047-.069V29.1s1.773,1.744,1.151,2.84-2.92,2.025-6.491.9c-4.046-1.27-4.97-3.952-4.97-3.952L5.75,18.742S4.391,20.17,2,18.075C.019,16.342-.692,13.373.8,11.742s3.394-1.759,5.113.064l1.235-.652c2.2-.257,5.434-.627,7.815-1.828C21.064,6.219,21.7,2.85,21.652,0Z" transform="translate(70.326 68.869)" fill="#ffa8a7"/>
        <path id="Vector-59" data-name="Vector" d="M0,0A2.307,2.307,0,0,1,1.54.71a2.307,2.307,0,0,1,.638,1.572A2.095,2.095,0,0,1,.03,4.446L0,0Z" transform="translate(76.269 79.361)" fill="#263238"/>
        <path id="Vector-60" data-name="Vector" d="M.086.659A1.082,1.082,0,0,1,1.107,0,1.067,1.067,0,1,1,0,1.077,1.082,1.082,0,0,1,.086.659Z" transform="translate(92.185 78.916)"/>
        <path id="Vector-61" data-name="Vector" d="M0,1.11a1.147,1.147,0,1,1,2.292.074A1.181,1.181,0,0,1,1.1,2.359,1.166,1.166,0,0,1,0,1.129Z" transform="translate(83.662 79.338)"/>
        <path id="Vector-62" data-name="Vector" d="M2.752,2.052,0,.96A1.423,1.423,0,0,1,1.907.115a1.531,1.531,0,0,1,.845,1.936Z" transform="translate(92.259 75.951)"/>
        <path id="Vector-63" data-name="Vector" d="M3.542,5.8,0,6.59.138,0Z" transform="translate(89.439 79.124)" fill="#f28f8f"/>
        <path id="Vector-64" data-name="Vector" d="M.072,0,3.53,1.072A1.759,1.759,0,0,1,1.327,2.4,1.976,1.976,0,0,1,.072,0Z" transform="translate(85.33 87.058)" fill="#b16668"/>
        <path id="Vector-65" data-name="Vector" d="M1.3,1.736a1.927,1.927,0,0,1-.916-.667A1.927,1.927,0,0,1,0,0,1.409,1.409,0,0,1,.143,0,1.823,1.823,0,0,1,1.966,1.81,1.625,1.625,0,0,1,1.3,1.736Z" transform="translate(85.348 87.703)" fill="#f28f8f"/>
        <path id="Vector-66" data-name="Vector" d="M8.472,5.375S3.394,3.987,1.843,2.653A5.493,5.493,0,0,1,0,0C.835,2.09,5.977,3.522,8.472,3.819Z" transform="translate(78.008 89.547)" fill="#f28f8f"/>
        <path id="Vector-67" data-name="Vector" d="M3.773,3.726A72.035,72.035,0,0,1,9.6,22.908C10.14,27,8.89,38.365,8.89,38.365,8.466,34.749,4.953,27.68,5.008,25.818a59.01,59.01,0,0,1,1.561-7.538S.794,13.167.27,11.8c-.608-1.586,0-7.9,0-7.9s1.171-1.917,1.7-2.816S3.086-.1,3.738.031Z" transform="translate(72.407 94.027)" fill="#ebebeb"/>
        <path id="Vector-68" data-name="Vector" d="M9.053,9.989c-.1,1.358-.277,2.85-.494,4.239a18.323,18.323,0,0,1-1.215,4.94,8.1,8.1,0,0,1-1.63,1.749,5.928,5.928,0,0,0,1.363.543,2.564,2.564,0,0,0,.825.064l.079.642a2.771,2.771,0,0,1-.953-.059,6.664,6.664,0,0,1-1.882-.761,6.654,6.654,0,0,1-1.813.914,2.964,2.964,0,0,1-.865.143H2.389v-.647a2.366,2.366,0,0,0,.815-.143,5.844,5.844,0,0,0,1.309-.647A7.9,7.9,0,0,1,2.75,19.36c-.687-.889-1.917-5.394-2.47-9A12.158,12.158,0,0,1,.132,6.111,20.18,20.18,0,0,1,1.688,2.544,5.7,5.7,0,0,1,3.787.109,1.2,1.2,0,0,1,4.222,0h.049a1.265,1.265,0,0,1,.435.089c.914.336,1.927,1.64,2.747,3h0A19.76,19.76,0,0,1,8.811,5.74a12.261,12.261,0,0,1,.242,4.248ZM6.771,18.8A22.954,22.954,0,0,0,8.09,12.963c.138-1.028.247-2.06.316-3.048a11.357,11.357,0,0,0-.178-3.952A18.45,18.45,0,0,0,7.24,3.987c-.168-.3-.341-.593-.524-.865-.9-1.388-1.872-2.47-2.47-2.47-.5.02-1.23.884-1.912,2.06a18.772,18.772,0,0,0-1.591,3.6A11.252,11.252,0,0,0,.9,10.26c.534,3.468,1.719,7.864,2.361,8.7a7.41,7.41,0,0,0,1.828,1.6,7.518,7.518,0,0,0,1.685-1.744Z" transform="translate(70.866 111.832)" fill="#455a64"/>
        <path id="Vector-69" data-name="Vector" d="M1.906.915A.953.953,0,1,1,1.6.254a.953.953,0,0,1,.305.661Z" transform="translate(77.826 132.703)" fill="#263238"/>
        <path id="Vector-70" data-name="Vector" d="M1.906.91A.948.948,0,1,1,1.819.55a.953.953,0,0,1,.087.36Z" transform="translate(72.288 132.964)" fill="#263238"/>
        <path id="Vector-71" data-name="Vector" d="M9.148,10.158l-.548-.04a.217.217,0,0,1-.2-.227,10.811,10.811,0,0,0-.168-3.68C7.276,3.869,5.27.935,4.426.969S1.832,4.1,1.071,6.512A11.055,11.055,0,0,0,1.215,10.2a.212.212,0,0,1-.173.242L.5,10.523a.217.217,0,0,1-.242-.188A10.882,10.882,0,0,1,.148,6.22C.553,4.926,2.464.08,4.386,0S8.625,4.585,9.138,5.845A11.022,11.022,0,0,1,9.375,9.95a.222.222,0,0,1-.227.207Z" transform="translate(70.692 111.653)" fill="#90caf9"/>
        <path id="Vector-72" data-name="Vector" d="M53.227,13.385s-5.306,9.608-8.66,13.832c-1.245,1.566-3.794,4.653-6.308,7.286-2.589,2.445-5.795,1.7-10.443-2.376-3.656-3.206-9.668-8.551-12.093-10.068s-7.217-1.912-9.5-2.9A7.612,7.612,0,0,1,2.063,15.7C1.021,14.135,1.05,11.428.433,10.47S-.259,8.015,1,8.494,7.4,11.67,10.006,11.631s.6-1.171.217-1.68S7.843,7.387,8.361,6.118s1.25-.212,3.048,1.146S14.9,8.953,16.537,10.6s2.47,4.461,5.054,6.244L34.366,23.67c2.347-3.843,9.421-17,11.238-19.439C47.9,1.163,49.566-.057,53.182,0c2.342,8.442.044,13.382.044,13.382Z" transform="translate(14.812 98.753)" fill="#ffa8a7"/>
        <path id="Vector-73" data-name="Vector" d="M33.014,16.07S21.529,31.932,17.987,34.985c-3.315,2.86-6.891,1.028-9.589-1.309L0,26.4c1.927-4.115,3.74-8.107,3.74-8.107l10.073,5.276s7-12.74,9.722-17.191S27.852,0,33.177,0c1.956,3.616,2.564,11.12-.163,16.07Z" transform="translate(35.316 98.395)" fill="#f0f0f0"/>
        <path id="Vector-74" data-name="Vector" d="M.716,0C4.673,5.607,3.547,7.128,3.547,7.128,3.636,5.414,1.645,3.236,0,1.3Z" transform="translate(49.128 120.664)" fill="#e0e0e0"/>
      </g>
    </g>
    <g id="freepik--Icons--inject-2">
      <path id="Vector-75" data-name="Vector" d="M24.646,5.928v8.3l-7.188,4.15v8.3L10.27,30.831,7.188,29.052V24.3L3.083,26.676,0,24.9V16.6l7.188-4.15V4.15L14.375,0l3.083,1.778-.015,4.733,4.12-2.361Z" transform="translate(8.512 70.306)" fill="#90caf9"/>
      <path id="Vector-76" data-name="Vector" d="M7.188,12.449V4.15L14.375,0l-.025,8.314L21.563,4.15v8.3L14.375,16.6v8.3L7.188,29.052v-8.3L0,24.9V16.6Z" transform="translate(11.594 72.084)" fill="#90caf9"/>
      <g id="Group-3" data-name="Group" opacity="0.2">
        <path id="Vector-77" data-name="Vector" d="M3.083,10.078,0,8.3V0L3.083,1.778Z" transform="translate(8.512 86.904)" opacity="0.2"/>
        <path id="Vector-78" data-name="Vector" d="M3.083,10.078,0,8.3V0L3.083,1.778Z" transform="translate(15.699 74.456)" opacity="0.2"/>
        <path id="Vector-79" data-name="Vector" d="M3.083,8.3,0,6.526V1.778L3.083,0Z" transform="translate(15.699 92.832)" opacity="0.2"/>
      </g>
      <g id="Group-4" data-name="Group" opacity="0.5">
        <path id="Vector-80" data-name="Vector" d="M3.083,5.928,0,4.15,7.188,0,10.27,1.778Z" transform="translate(8.512 82.755)" fill="#fff" opacity="0.5"/>
        <path id="Vector-81" data-name="Vector" d="M3.083,5.928,0,4.15,7.188,0,10.27,1.778Z" transform="translate(15.699 70.306)" fill="#fff" opacity="0.5"/>
        <path id="Vector-82" data-name="Vector" d="M0,5.943.01,2.361,4.13,0,7.212,1.778Z" transform="translate(25.945 74.456)" fill="#fff" opacity="0.5"/>
      </g>
      <g id="freepik--Heart--inject-2">
        <path id="Vector-83" data-name="Vector" d="M29.289,7.4c.04,5.182-2.129,10.142-4.9,15.205a89.1,89.1,0,0,1-5.469,8.7L16.188,35.1l-2.732-.637a17.5,17.5,0,0,1-5.469-2.391c-.207-.138-2.3-1.26-3.088-1.793C2.129,28.412,0,25.932,0,20.73a16.06,16.06,0,0,1,1.68-6.768v-.044A12.426,12.426,0,0,1,6.155,8.533c1.724-1.121,3.255-1.467,4.565-.751.529.311,2.159,1.482,2.159,1.482,1.61-4.5,3.72-7.2,6.254-8.482C20.9-.112,22.887-.29,24.142.511c.124.074,2.495,1.438,3.018,1.749a2.826,2.826,0,0,1,.42.3A6.679,6.679,0,0,1,29.289,7.4Z" transform="translate(120.719 55.237)" fill="#90caf9"/>
        <path id="Vector-84" data-name="Vector" d="M29.289,7.4c.04,5.182-2.129,10.142-4.9,15.205a89.1,89.1,0,0,1-5.469,8.7L16.188,35.1l-2.732-.637a17.5,17.5,0,0,1-5.469-2.391c-.207-.138-2.3-1.26-3.088-1.793C2.129,28.412,0,25.932,0,20.73a16.06,16.06,0,0,1,1.68-6.768v-.044A12.426,12.426,0,0,1,6.155,8.533c1.724-1.121,3.255-1.467,4.565-.751.529.311,2.159,1.482,2.159,1.482,1.61-4.5,3.72-7.2,6.254-8.482C20.9-.112,22.887-.29,24.142.511c.124.074,2.495,1.438,3.018,1.749a2.826,2.826,0,0,1,.42.3A6.679,6.679,0,0,1,29.289,7.4Z" transform="translate(120.719 55.237)" opacity="0.3"/>
        <path id="Vector-85" data-name="Vector" d="M27.783,7.4c.04,5.182-2.129,10.142-4.9,15.205-.682,1.245-1.4,2.455-2.134,3.651L0,14.288c.049-.109.094-.217.148-.326v-.044A12.426,12.426,0,0,1,4.624,8.533c1.724-1.121,3.255-1.467,4.565-.751.529.311,2.159,1.482,2.159,1.482,1.61-4.5,3.72-7.2,6.254-8.482C19.37-.112,21.356-.29,22.61.511c.124.074,2.495,1.438,3.018,1.749a2.826,2.826,0,0,1,.42.3A6.791,6.791,0,0,1,27.783,7.4Z" transform="translate(122.25 55.237)" fill="#90caf9"/>
        <path id="Vector-86" data-name="Vector" d="M27.783,7.4c.04,5.182-2.129,10.142-4.9,15.205-.682,1.245-1.4,2.455-2.134,3.651L0,14.288c.049-.109.094-.217.148-.326v-.044A12.426,12.426,0,0,1,4.624,8.533c1.724-1.121,3.255-1.467,4.565-.751.529.311,2.159,1.482,2.159,1.482,1.61-4.5,3.72-7.2,6.254-8.482C19.37-.112,21.356-.29,22.61.511c.124.074,2.495,1.438,3.018,1.749a2.826,2.826,0,0,1,.42.3A6.791,6.791,0,0,1,27.783,7.4Z" transform="translate(122.25 55.237)" opacity="0.15"/>
        <path id="Vector-87" data-name="Vector" d="M0,4.594A22.724,22.724,0,0,1,2.193,0L7.252,2.92l-4.476,5.3L0,4.594Z" transform="translate(133.583 59.888)" fill="#90caf9"/>
        <path id="Vector-88" data-name="Vector" d="M0,4.594A22.724,22.724,0,0,1,2.193,0L7.252,2.92l-4.476,5.3L0,4.594Z" transform="translate(133.583 59.888)" opacity="0.3"/>
        <path id="Vector-89" data-name="Vector" d="M26.2,5.623c.04,5.182-2.129,10.142-4.9,15.205a89.1,89.1,0,0,1-5.469,8.7L13.1,33.321l-2.732-.637A17.5,17.5,0,0,1,4.9,30.293C2.134,28.431,0,25.951,0,20.749a16.149,16.149,0,0,1,1.675-6.773l.025-.044A12.359,12.359,0,0,1,6.175,8.547c2.653-1.724,4.846-1.63,6.486,1.383C14.3,5.02,16.495,2.12,19.147.777c1.946-.988,4.15-1.082,5.36,0A6.623,6.623,0,0,1,26.2,5.623Z" transform="translate(123.791 57.021)" fill="#90caf9"/>
        <g id="Group-5" data-name="Group" opacity="0.07">
          <path id="Vector-90" data-name="Vector" d="M22.19.262a6.635,6.635,0,0,0-2.924.756c-2.707,1.368-4.787,4.313-6.353,9a.267.267,0,0,1-.227.178h-.025a.252.252,0,0,1-.232-.138c-.869-1.6-1.9-2.371-3.157-2.371A5.582,5.582,0,0,0,6.308,8.773a12.1,12.1,0,0,0-4.382,5.276v.044A15.941,15.941,0,0,0,.3,20.753C.282,26.128,2.613,28.4,5.083,30.08a17.325,17.325,0,0,0,5.39,2.351l2.554.6,2.623-3.651A88.023,88.023,0,0,0,21.084,20.7c2.4-4.416,4.866-9.668,4.866-15.077A6.222,6.222,0,0,0,24.359.993a.153.153,0,0,1-.044-.054A3.176,3.176,0,0,0,22.205.262ZM22.205.03A3.423,3.423,0,0,1,24.522.8,6.418,6.418,0,0,1,26.2,5.627c.04,5.182-2.129,10.142-4.9,15.205a89.1,89.1,0,0,1-5.469,8.7L13.1,33.325l-2.732-.637A17.5,17.5,0,0,1,4.9,30.3C2.134,28.435,0,25.955,0,20.753A16.149,16.149,0,0,1,1.675,13.98l.025-.044A12.359,12.359,0,0,1,6.175,8.551a5.874,5.874,0,0,1,3.1-1.131c1.3,0,2.44.766,3.389,2.514,1.64-4.91,3.833-7.81,6.486-9.154A6.876,6.876,0,0,1,22.19,0Z" transform="translate(123.762 57.042)" opacity="0.07"/>
        </g>
        <path id="Vector-91" data-name="Vector" d="M21.835,6.037,17.112,8.759a.494.494,0,0,1-.736-.3L14.785,2.623,11.772,16.366a.5.5,0,0,1-.953.064L8.166,9.189l-1.378,4.9a.519.519,0,0,1-.237.3L.622,17.8A9.171,9.171,0,0,1,0,17L5.849,13.62,7.6,7.41a.494.494,0,0,1,.988-.04l2.589,7.084L14.252.4A.508.508,0,0,1,15.24.371l1.976,7.188,5.315-3.073a16.459,16.459,0,0,1-.7,1.551Z" transform="translate(125.466 67.317)" fill="#fff"/>
      </g>
    </g>
    <g id="freepik--Character--inject-2">
      <g id="freepik--character--inject-2-2" data-name="freepik--character--inject-2">
        <path id="Vector-92" data-name="Vector" d="M24.322.983a6.106,6.106,0,0,1,.247,1.665,1.581,1.581,0,0,1-.351,1.235c-.874.845-2.673,1.359-5.014,1.042a71.516,71.516,0,0,0-7.662-.682c-1.492.089-4.955.583-7.474.089A5.892,5.892,0,0,1,.116,2.06,3.868,3.868,0,0,1,.166,0Z" transform="translate(170.141 203.918)" fill="#263238"/>
        <path id="Vector-93" data-name="Vector" d="M23.819,4.631c.044.193.089.39.128.588a9.811,9.811,0,0,1,.212,3.033,2.732,2.732,0,0,1-1.793,1.358,9.073,9.073,0,0,1-5.054.1,35.776,35.776,0,0,0-5.928-.366A36.489,36.489,0,0,1,6.2,9.606a12.231,12.231,0,0,1-3.819-.781C1.357,8.39.309,7.837.057,6.77A3.376,3.376,0,0,1,1.742,2.946c1.052-.622,2.549-.573,4.15-.677,1.447-.1,2.5-.1,3.794-.2A18.727,18.727,0,0,0,13,1.613c.988-.306,1.976-1.546,2.381-1.591,0,0,6.447-.049,7.059,0,.711.059.929,2.263,1.018,2.742.069.375.084.781.183,1.141.064.242.124.484.183.726Z" transform="translate(170.259 197.82)" fill="#37474f"/>
        <path id="Vector-94" data-name="Vector" d="M.16,4.839C-.427,2.823.62.916,2.976.289a7.331,7.331,0,0,1,4.075,0H6.681C3.717,2.295,4.009,5.762,4.211,7.363.694,6.77.17,4.819.16,4.839Z" transform="translate(170.003 199.766)" fill="#fafafa"/>
        <path id="Vector-95" data-name="Vector" d="M2.6.037A5.7,5.7,0,0,0,1.312,2.8c-.123.721-1.428.83-1.3.133A7.509,7.509,0,0,1,1.14.26,2.248,2.248,0,0,1,2.6.037Z" transform="translate(180.218 199.509)" fill="#fafafa"/>
        <path id="Vector-96" data-name="Vector" d="M2.484.111A4.629,4.629,0,0,0,1.145,2.729c-.133.692-1.22.682-1.141,0A3.948,3.948,0,0,1,1.145.229,1.452,1.452,0,0,1,2.484.111Z" transform="translate(177.658 199.767)" fill="#fafafa"/>
        <path id="Vector-97" data-name="Vector" d="M7.492,0s-.173,4.145-.4,5.5c-.138.81-1.2,1.66-3.843,1.571C1.391,7.01-.071,7.163,0,5.711L.166,1.477Z" transform="translate(185.4 193.154)" fill="#ffa8a7"/>
        <path id="Vector-98" data-name="Vector" d="M8.3,8.151s5.147.548,5.212,2.164-.3,1.971-1.354,2.421a4.416,4.416,0,0,1-4.318-.608A15.882,15.882,0,0,1,5.6,9.475a24,24,0,0,0-2.4-2.766A7.732,7.732,0,0,1,.319,3.4,7.127,7.127,0,0,1,.1,0Z" transform="translate(196.935 183.363)" fill="#263238"/>
        <path id="Vector-99" data-name="Vector" d="M12.56,7.415c.44.158.548.953.618,2.534.049,1.2.578,2.964-1.156,3.7a4.391,4.391,0,0,1-4.574-.924A56.713,56.713,0,0,0,3.792,8.363C2.31,6.881.828,6.387.171,3.4-.249,1.482.082.691,1.435.143,3.3-.613,6.217,1.852,7.679,2.243c1.255.331,4.441,5.014,4.881,5.172Z" transform="translate(197.222 181.451)" fill="#37474f"/>
        <path id="Vector-100" data-name="Vector" d="M4.327.084a2.055,2.055,0,0,1,.736.454A5.109,5.109,0,0,0,1.037,3.033c-.494.405-1.235,0-.988-.519A4.777,4.777,0,0,1,4.08,0l.247.084Z" transform="translate(200.574 183.61)" fill="#fafafa"/>
        <path id="Vector-101" data-name="Vector" d="M4.4.6A4.891,4.891,0,0,0,1.036,2.989c-.469.43-1.235,0-.988-.494A4.742,4.742,0,0,1,3.792,0c.193.193.39.405.6.6Z" transform="translate(202.309 184.593)" fill="#fafafa"/>
        <path id="Vector-102" data-name="Vector" d="M5.755,0,5.5,3.335a5.213,5.213,0,0,1-5.157.128C.257,3.28,0,.3,0,.3Z" transform="translate(204.279 186.011)" fill="#ffa8a7"/>
        <path id="Vector-103" data-name="Vector" d="M.363,1.222A3.566,3.566,0,0,1,4.236.165a4.313,4.313,0,0,1,2.47,1.818L6.415,1.83c-5.034.489-5.177,4.031-5.177,4.031C.368,5.174-.516,2.279.363,1.222Z" transform="translate(197.009 181.187)" fill="#fafafa"/>
        <path id="Vector-104" data-name="Vector" d="M27.129,74.256a6.94,6.94,0,0,1-6.8,0s-2-17.171-2.934-23.9c-1.082-7.751-1.689-10.3-1.917-14.459s-.43-11.856-.43-11.856l-2.663,24a32.339,32.339,0,0,1,.217,7.761C12.3,60.6,10.224,83.78,10.224,83.78S3.506,86.759.66,82.851c0,0,.064-16.509-.148-23.218C.25,51.541-.17,48.088.073,43.924c.44-7.415.39-26.834.781-38.2.321-9.475,26.152-4.337,26.152-4.337a53.115,53.115,0,0,1,.879,11.036c-.069,3.359-.183,7.044-.4,10.374-.5,7.593-.356,15.808-.356,15.808s.267,3.251.988,9.085-.988,26.562-.988,26.562Z" transform="translate(183.384 116.107)" fill="#455a64"/>
        <path id="Vector-105" data-name="Vector" d="M9.672,0a21.986,21.986,0,0,1-7.41,5.9S.454,20.422.469,20.135L0,5.523A54.381,54.381,0,0,0,9.672,0Z" transform="translate(198.301 130.648)" fill="#37474f"/>
        <path id="Vector-106" data-name="Vector" d="M.01.112C2.791-.511,5.938,1.475,8.032,5.906c2.025,4.239,7.558,14.944,7.692,17.942C15.867,26.956,2.045,36.381,2.386,36.2,2.495,36.144,0,29.07,0,29.07l6.713-5.557L3.063,15.994Z" transform="translate(207.875 83.868)" fill="#ffa8a7"/>
        <path id="Vector-107" data-name="Vector" d="M0,.051c2.342-.287,6.585.6,8.205,3.414,2.351,4.076,4.5,8.788,7.227,14.879a9.345,9.345,0,0,1-7.855,4.8L4.085,17.02Z" transform="translate(206.423 83.262)" fill="#37474f"/>
        <path id="Vector-108" data-name="Vector" d="M8.709,0l.262,10.043L.405,10.5,0,1.857Z" transform="translate(194.636 77.785)" fill="#ffa8a7"/>
        <path id="Vector-109" data-name="Vector" d="M28.622,16.188c-.331,4.125-1.378,7.973-1.482,11.614a91.711,91.711,0,0,0,0,11.594s-1.24,3.018-9.569,3.858c-5.3.538-12.75.855-17.572-1.689.084-8.413,0-26.039,0-26.039C.425,6.585,1.27,3.789,4.011,2.88,5,2.584,9.776,1.408,10.927,1.1c3.814.874,8.274.356,8.63-1.1h2.174a6.726,6.726,0,0,1,6.358,4.392c.489,1.62,1.023,5.666.534,11.8Z" transform="translate(183.931 83.274)" fill="#90caf9"/>
        <g id="freepik--Scarf--inject-2">
          <path id="Vector-110" data-name="Vector" d="M1.61,4.39,0,4.82C.637,1.446,3.107-.13,5.083.008Z" transform="translate(188.214 81.274)" fill="#90caf9"/>
          <path id="Vector-111" data-name="Vector" d="M1.61,4.39,0,4.82C.637,1.446,3.107-.13,5.083.008Z" transform="translate(188.214 81.274)" opacity="0.3"/>
          <path id="Vector-112" data-name="Vector" d="M4.9,1.793a19.251,19.251,0,0,0,7.252,0C13.6,1.368,13.585.726,13.585.726V0a4.085,4.085,0,0,1,2.337.726c.924.751,2.514,3.458,2.47,4.757s-2.821,4.728-8.176,4.644S1.853,8.062.929,6.758L0,5.449a14.978,14.978,0,0,1,2.519-3.7A4.209,4.209,0,0,1,4.866.6Z" transform="translate(189.844 80.211)" fill="#90caf9"/>
          <path id="Vector-113" data-name="Vector" d="M4.9,1.793a19.251,19.251,0,0,0,7.252,0C13.6,1.368,13.585.726,13.585.726V0a4.085,4.085,0,0,1,2.337.726c.924.751,2.514,3.458,2.47,4.757s-2.821,4.728-8.176,4.644S1.853,8.062.929,6.758L0,5.449a14.978,14.978,0,0,1,2.519-3.7A4.209,4.209,0,0,1,4.866.6Z" transform="translate(189.844 80.211)" opacity="0.2"/>
        </g>
        <path id="Vector-114" data-name="Vector" d="M1.752,3.982S.251,3.7.018,3.4,1.826,0,1.826,0Z" transform="translate(187.045 69.041)" fill="#f28f8f"/>
        <path id="Vector-115" data-name="Vector" d="M16.967,2.3c2.86,2.258,2.164,7.761-.494,11.821-2.258,3.448-7.084,5.157-9.218,5.745-1.7.474-5.088.361-5.7-.262C.66,18.678-.2,16.415.043,9.549.3,2.49,1.95,1.279,6.079.4,7.764.049,12.981-.88,16.967,2.3Z" transform="translate(188.463 60.061)" fill="#ffa8a7"/>
        <path id="Vector-116" data-name="Vector" d="M0,.558A10.063,10.063,0,0,0,4.614,0l.025,1.023C2.86,1.24.494,1.052,0,.558Z" transform="translate(190.022 79.099)" fill="#f28f8f"/>
        <path id="Vector-117" data-name="Vector" d="M1.17,6.715A3.493,3.493,0,0,1,0,4.131,1.482,1.482,0,0,1,.923,2.649a2.174,2.174,0,0,1,.8,0,7.83,7.83,0,0,0,2.317.133A3.546,3.546,0,0,1,2.953.979a.781.781,0,0,1,.336-.79.953.953,0,0,1,.7.044A17.355,17.355,0,0,0,5.71.688C9.257,1.493,12.6-.631,16.173.194c2.4.548,4.5,1.744,4.891,4.406,2.011,1.531,3.265,5.162.667,10.947-1.23,2.732-2.677,4.273-4.98,7.44a10.972,10.972,0,0,1-5.666-.143A7.627,7.627,0,0,1,8.861,16.98S10.3,18.541,12,16.239c1.037-1.408.711-4.8-1.882-4.52a2.836,2.836,0,0,0-1.769.988,7.534,7.534,0,0,0-.869,1.482.583.583,0,0,1-1.052,0,1.556,1.556,0,0,1-.193-.9,6.422,6.422,0,0,1,.7-2.86A3.132,3.132,0,0,1,5.152,9.135a2.663,2.663,0,0,1-.425-1.566A4.856,4.856,0,0,1,1.17,6.715Z" transform="translate(186.787 56.404)" fill="#263238"/>
        <path id="Vector-118" data-name="Vector" d="M.205,2.181A1.44,1.44,0,0,1,2.675.7L.205,2.181Z" transform="translate(207.709 59.682)" fill="#263238"/>
        <path id="Vector-119" data-name="Vector" d="M14.378,31.133c-2.495,2.589-6.886,7.588-9.6,6.481C2.9,36.828,2.112,35.243,1.7,32.876S1.2,18.615.9,16.234L.457,12.662C.323,11.595.131,10.528.047,9.446A15.892,15.892,0,0,1,.422,4.59a4.332,4.332,0,0,1,2.02-3.008A8.19,8.19,0,0,1,4.621.757c.321-.084.593-.084.958-.2S6.261.213,6.627.09A1.151,1.151,0,0,1,7.773.238a.988.988,0,0,1,.282.776,2.841,2.841,0,0,1-.183.83C7.225,3.869,6.444,5.81,6.632,7.979a.988.988,0,0,0,.148.494c.277.37.855.054,1.092-.2a5.657,5.657,0,0,0,.573-.86c.37-.578,2.188-2.426,2.549-1.018.109.43-.123.687-.287,1.136s-.321.9-.494,1.349a15.685,15.685,0,0,1-1.284,2.638A13.106,13.106,0,0,0,7.447,14.08c-.7,2.075.064,4.426.558,6.457q.781,3.31,1.62,6.61Z" transform="translate(166.1 73.63)" fill="#ffa8a7"/>
        <path id="Vector-120" data-name="Vector" d="M4.377,1.739C2.628,3.048.45,5.227.01,7.41c0,0-.435-3.927,4.367-7.41Z" transform="translate(170.356 97.688)" fill="#f28f8f"/>
        <path id="Vector-121" data-name="Vector" d="M15.442,10.7C13.773,13.891,6,21.3,6,21.3a9.73,9.73,0,0,1-6-7.543S5.034,6.783,8.3,3.246A9.794,9.794,0,0,1,15.561,0c1.927,2.218,1.551,7.509-.119,10.7Z" transform="translate(172.243 86.208)" fill="#37474f"/>
        <g id="freepik--Pain--inject-2">
          <path id="Vector-122" data-name="Vector" d="M4.431,7.168,5.711,5.888.529,3.646l2.3-1.151L0,0,4.752,2.529,2.826,3.646,7.237,5.711,6.017,6.753,8.141,7.894Z" transform="translate(177.425 66.576)" fill="#90caf9"/>
          <path id="Vector-123" data-name="Vector" d="M1.843,5.548.459,4.224l.756-.558L0,2.223l1.166-.4L.761,0l.82,1.971-.82.356L2.075,3.769,1.186,4.4Z" transform="translate(184.805 66.122)" fill="#90caf9"/>
          <path id="Vector-124" data-name="Vector" d="M10.32.948,7.711,2.984,6.748,1.566,4.466,2.806,3.532,1.052,0,1.956,4.085,0,5.256,1.615,7.153.6l.79,1.359Z" transform="translate(175.523 75.612)" fill="#90caf9"/>
        </g>
        <path id="Vector-125" data-name="Vector" d="M.136.09A.39.39,0,0,1,.684.139,4,4,0,0,0,2.576,1.327a4,4,0,0,0,2.233-.012.39.39,0,1,1,.227.746,4.777,4.777,0,0,1-2.678.01A4.777,4.777,0,0,1,.1.638.385.385,0,0,1,.136.09Z" transform="translate(167.572 112.893)" fill="#e0e0e0"/>
        <path id="Vector-126" data-name="Vector" d="M.126.09A.385.385,0,0,1,.62.09,3.4,3.4,0,0,0,1.97.673,3.4,3.4,0,0,0,3.441.633.4.4,0,0,1,3.9.944a.385.385,0,0,1-.306.454,4.169,4.169,0,0,1-1.811.017A4.169,4.169,0,0,1,.136.663.385.385,0,0,1,.1.114.148.148,0,0,1,.126.09Z" transform="translate(167.977 115.506)" fill="#e0e0e0"/>
        <path id="Vector-127" data-name="Vector" d="M4.676,3.064a.385.385,0,0,1-.524-.173A4.016,4.016,0,0,0,.413.787.391.391,0,0,1,.369.007,4.792,4.792,0,0,1,4.849,2.541a.4.4,0,0,1-.173.524Z" transform="translate(211.933 82.59)" fill="#e0e0e0"/>
        <path id="Vector-128" data-name="Vector" d="M3.448,2.095a.385.385,0,0,1-.494-.119A3.419,3.419,0,0,0,.376.781.391.391,0,1,1,.405,0,4.174,4.174,0,0,1,3.587,1.522a.385.385,0,0,1-.1.529Z" transform="translate(213.378 80.942)" fill="#e0e0e0"/>
        <path id="Vector-129" data-name="Vector" d="M.048,4.794A.39.39,0,0,1,.2,4.265,4.006,4.006,0,0,0,1.718,2.627a4.006,4.006,0,0,0,.4-2.2A.385.385,0,0,1,2.468,0,.39.39,0,0,1,2.9.348a4.8,4.8,0,0,1-.49,2.624A4.8,4.8,0,0,1,.591,4.927a.39.39,0,0,1-.543-.133Z" transform="translate(223.685 106.717)" fill="#e0e0e0"/>
        <path id="Vector-130" data-name="Vector" d="M.049,3.517a.4.4,0,0,1,.094-.494,3.394,3.394,0,0,0,.825-1.2A3.394,3.394,0,0,0,1.215.39.39.39,0,1,1,2,.39,4.209,4.209,0,0,1,1.67,2.165,4.209,4.209,0,0,1,.632,3.641a.39.39,0,0,1-.548-.064Z" transform="translate(226.307 108.087)" fill="#e0e0e0"/>
        <path id="Vector-131" data-name="Vector" d="M.958.039a.4.4,0,0,1,.178.524,4,4,0,0,0,.6,4.243.4.4,0,0,1-.044.553.39.39,0,0,1-.548-.04A4.792,4.792,0,0,1,.434.217.4.4,0,0,1,.958.039Z" transform="translate(179.955 158.535)" fill="#e0e0e0"/>
        <path id="Vector-132" data-name="Vector" d="M.651.044A.39.39,0,0,1,.858.508a3.4,3.4,0,0,0,.618,2.776.4.4,0,0,1-.094.543.39.39,0,0,1-.543-.094A4.194,4.194,0,0,1,.107.276.39.39,0,0,1,.6.019Z" transform="translate(178.049 159.938)" fill="#e0e0e0"/>
      </g>
    </g>
    <g id="freepik--speech-bubbles--inject-2">
      <g id="freepik--speech-bubble--inject-2">
        <g id="freepik--speech-bubble--inject-2-2" data-name="freepik--speech-bubble--inject-2">
          <path id="Vector-133" data-name="Vector" d="M31.409,16.176a2.92,2.92,0,0,1-1.329,2.3L5.063,32.927a2.92,2.92,0,0,1-2.653,0L1.329,32.3A2.934,2.934,0,0,1,0,30.008V17.07a2.929,2.929,0,0,1,1.329-2.3L26.35.313A2.964,2.964,0,0,1,29,.313L30.08.941a2.92,2.92,0,0,1,1.329,2.3Z" transform="translate(120.472 19.708)" fill="#90caf9"/>
          <path id="Vector-134" data-name="Vector" d="M31.409,16.176a2.92,2.92,0,0,1-1.329,2.3L5.063,32.927a2.92,2.92,0,0,1-2.653,0L1.329,32.3A2.934,2.934,0,0,1,0,30.008V17.07a2.929,2.929,0,0,1,1.329-2.3L26.35.313A2.964,2.964,0,0,1,29,.313L30.08.941a2.92,2.92,0,0,1,1.329,2.3Z" transform="translate(120.472 19.708)" fill="#fff" opacity="0.5"/>
          <path id="Vector-135" data-name="Vector" d="M0,1.309A2.692,2.692,0,0,1,.39,0L4.125,2.154a2.707,2.707,0,0,0-.39,1.309V16.4c0,.761.474,1.111,1.1.874a2.964,2.964,0,0,1-2.426-.109l-1.082-.622A2.934,2.934,0,0,1,0,14.247Z" transform="translate(120.472 35.469)" opacity="0.2"/>
          <path id="Vector-136" data-name="Vector" d="M30.969,2.863c-.153-.563-.667-.746-1.279-.39L4.668,16.927a2.643,2.643,0,0,0-.939.988L0,15.761a2.668,2.668,0,0,1,.934-.988L25.95.319a2.92,2.92,0,0,1,2.653,0l1.087.622a2.934,2.934,0,0,1,1.279,1.922Z" transform="translate(120.867 19.708)" fill="#fff" opacity="0.3"/>
          <path id="Vector-137" data-name="Vector" d="M8.424,2.154V6.8l-3.952.756a.929.929,0,0,1-.494-.1L.307,5.315a.632.632,0,0,1-.124-.988L4.679,0l3.73,2.154Z" transform="translate(115.803 40.962)" fill="#90caf9"/>
          <path id="Vector-138" data-name="Vector" d="M8.424,2.154V6.8l-3.952.756a.929.929,0,0,1-.494-.1L.307,5.315a.632.632,0,0,1-.124-.988L4.679,0l3.73,2.154Z" transform="translate(115.803 40.962)" fill="#fff" opacity="0.5"/>
          <path id="Vector-139" data-name="Vector" d="M3.983,7.454,2.007,6.323,1.774,6.17.717,5.558.589,5.478.307,5.315a.632.632,0,0,1-.124-.988L4.679,0,8.414,2.159l-4.5,4.308a.627.627,0,0,0,.064.988Z" transform="translate(115.798 40.958)" fill="#fff" opacity="0.3"/>
        </g>
        <path id="Vector-140" data-name="Vector" d="M3.542,1.265a3.908,3.908,0,0,1-.517,1.746A3.907,3.907,0,0,1,1.773,4.333C.8,4.9,0,4.436,0,3.31A3.912,3.912,0,0,1,1.773.242C2.752-.321,3.542.129,3.542,1.265Z" transform="translate(129.744 38.897)" fill="#fff"/>
        <path id="Vector-141" data-name="Vector" d="M3.537,1.266a3.907,3.907,0,0,1-.518,1.743,3.907,3.907,0,0,1-1.251,1.32C.79,4.9,0,4.438,0,3.311A3.908,3.908,0,0,1,1.769.244C2.747-.324,3.527.135,3.537,1.266Z" transform="translate(136.275 35.122)" fill="#fff"/>
        <path id="Vector-142" data-name="Vector" d="M3.542,1.258a3.912,3.912,0,0,1-.518,1.749A3.912,3.912,0,0,1,1.769,4.331C.79,4.894,0,4.44,0,3.308A3.922,3.922,0,0,1,1.769.241c.978-.563,1.773-.1,1.773,1.018Z" transform="translate(142.801 31.346)" fill="#fff"/>
      </g>
      <g id="freepik--speech-bubble--inject-2-3" data-name="freepik--speech-bubble--inject-2">
        <g id="freepik--speech-bubble--inject-2-4" data-name="freepik--speech-bubble--inject-2">
          <path id="Vector-143" data-name="Vector" d="M2.025,8.5h0A.311.311,0,0,1,1.9,8.388L0,5.1V2.549L4.416,0V2.564L2.974,6.728l1.793,3.354Z" transform="translate(195.273 38.226)" fill="#90caf9"/>
          <path id="Vector-144" data-name="Vector" d="M2.025,8.5h0A.311.311,0,0,1,1.9,8.388L0,5.1V2.549L4.416,0V2.564L2.974,6.728l1.793,3.354Z" transform="translate(195.273 38.226)" opacity="0.2"/>
          <path id="Vector-145" data-name="Vector" d="M31.31,16.141a2.92,2.92,0,0,1-1.324,2.292l-9.673,5.557-2.006,5.775a.277.277,0,0,1-.494.049l-1.9-3.28L5.049,32.858a2.964,2.964,0,0,1-2.648,0l-1.077-.622A2.92,2.92,0,0,1,0,29.944V17.036a2.964,2.964,0,0,1,1.324-2.3L26.286.319a2.91,2.91,0,0,1,2.648,0L30.01.941a2.92,2.92,0,0,1,1.324,2.292Z" transform="translate(182.118 18.394)" fill="#90caf9"/>
          <path id="Vector-146" data-name="Vector" d="M1.067,11.679,21.025.154C21.617-.186,22.1.056,22.1.7a2.292,2.292,0,0,1-1.072,1.773L1.067,14C.479,14.337,0,14.1,0,13.453a2.3,2.3,0,0,1,1.067-1.773Z" transform="translate(188.53 26.25)" fill="#fff"/>
          <path id="Vector-147" data-name="Vector" d="M1.067,11.675,21.025.155c.593-.341,1.072-.1,1.072.538a2.292,2.292,0,0,1-1.072,1.778L1.067,13.991C.479,14.337,0,14.09,0,13.453a2.3,2.3,0,0,1,1.067-1.778Z" transform="translate(188.53 31.387)" fill="#fff"/>
          <path id="Vector-148" data-name="Vector" d="M0,1.309A2.737,2.737,0,0,1,.385,0L4.11,2.154a2.717,2.717,0,0,0-.385,1.3V16.366c0,.756.474,1.107,1.1.874A2.964,2.964,0,0,1,2.4,17.132l-1.077-.622A2.92,2.92,0,0,1,0,14.217Z" transform="translate(182.118 34.121)" opacity="0.2"/>
        </g>
        <path id="Vector-149" data-name="Vector" d="M30.9,2.852c-.153-.563-.667-.741-1.279-.39L4.658,16.887a2.613,2.613,0,0,0-.934.988L0,15.726a2.692,2.692,0,0,1,.934-.988L25.891.313a2.964,2.964,0,0,1,2.653,0L29.62.936A2.91,2.91,0,0,1,30.9,2.853Z" transform="translate(182.508 18.389)" fill="#fff" opacity="0.2"/>
      </g>
    </g>
  </g>
</svg>
