<svg xmlns="http://www.w3.org/2000/svg" width="18.521" height="24.676" viewBox="0 0 18.521 24.676">
  <g id="Call" transform="translate(0 1.826) rotate(-6.555)">
    <rect id="Call-2" data-name="Call" width="16" height="23" fill="none"/>
    <path id="Vector" d="M12.689,15.019a1.478,1.478,0,0,1,.206.438,1.894,1.894,0,0,1,0,1.036,1.478,1.478,0,0,1-.206.438A3.579,3.579,0,0,1,9.814,18.64,3.579,3.579,0,0,1,6.939,16.93L1.189,8.665A7.344,7.344,0,0,1,0,4.532,7.344,7.344,0,0,1,1.189.4a1,1,0,0,1,.3-.3.677.677,0,0,1,.721,0,1,1,0,0,1,.3.3l1.77,2.537a1.491,1.491,0,0,1,.2.439,1.9,1.9,0,0,1,0,1.035,1.491,1.491,0,0,1-.2.439,1.469,1.469,0,0,0-.205.436,1.883,1.883,0,0,0,0,1.032,1.469,1.469,0,0,0,.205.436l4,5.75a.994.994,0,0,0,.3.3.687.687,0,0,0,.358.105.7.7,0,0,0,.36-.106,1.009,1.009,0,0,0,.3-.3.759.759,0,0,1,1.33,0Z" transform="translate(1.511 2.188)" fill="#edf6ff"/>
    <path id="Vector-2" data-name="Vector" d="M1.2,7.227A6.444,6.444,0,0,1,.314,5.333,8.117,8.117,0,0,1,0,3.095,8.045,8.045,0,0,1,.23,1.219,5.587,5.587,0,0,1,.7.4,1,1,0,0,1,1,.1a.677.677,0,0,1,.721,0,1,1,0,0,1,.3.3L3.775,2.908a1.724,1.724,0,0,1,.275.956v.065a1.865,1.865,0,0,0-.045.338,1.479,1.479,0,0,1-.225.553,1.469,1.469,0,0,0-.205.436,1.883,1.883,0,0,0,0,1.032,1.469,1.469,0,0,0,.205.436l4,5.75a.994.994,0,0,0,.3.3.687.687,0,0,0,.358.105.7.7,0,0,0,.36-.106,1.009,1.009,0,0,0,.3-.3.759.759,0,0,1,1.33,0l1.75,2.544a1.6,1.6,0,0,1,.265.776,3.393,3.393,0,0,1-2.791,1.391A3.626,3.626,0,0,1,6.95,15.493Z" transform="translate(1.5 3.626)" fill="#a3acbb"/>
    <path id="Vector-3" data-name="Vector" d="M10.315,20.061a4.008,4.008,0,0,1-3.23-1.912L1.335,9.862A8.256,8.256,0,0,1,0,5.218,8.256,8.256,0,0,1,1.335.575,1.3,1.3,0,0,1,2.355,0a1.3,1.3,0,0,1,1.02.575l1.77,2.537a2.622,2.622,0,0,1,.417,1.463,2.622,2.622,0,0,1-.417,1.463.671.671,0,0,0-.1.206A.863.863,0,0,0,5,6.491a.8.8,0,0,0,.13.438l.53.762a.971.971,0,0,1,.082.462.888.888,0,0,1-.137.434.471.471,0,0,1-.3.215.38.38,0,0,1-.324-.1l-.53-.719a2.247,2.247,0,0,1-.316-.669,2.885,2.885,0,0,1,0-1.586A2.247,2.247,0,0,1,4.46,5.06a.808.808,0,0,0,.125-.446.857.857,0,0,0-.035-.247.67.67,0,0,0-.1-.206L2.665,1.6a.386.386,0,0,0-.31-.184.386.386,0,0,0-.31.184,5.516,5.516,0,0,0-.784,1.657A6.985,6.985,0,0,0,.99,5.218a7.1,7.1,0,0,0,.275,1.966,5.63,5.63,0,0,0,.78,1.663l5.75,8.258a3.136,3.136,0,0,0,2.52,1.5,3.136,3.136,0,0,0,2.52-1.5.674.674,0,0,0,.1-.2.87.87,0,0,0,0-.484.674.674,0,0,0-.1-.2L11.07,13.671a.353.353,0,0,0-.62,0,1.282,1.282,0,0,1-1.02.591,1.281,1.281,0,0,1-1.02-.591L6.515,10.94a.747.747,0,0,1-.125-.233.981.981,0,0,1-.05-.285,1.006,1.006,0,0,1,.034-.29.8.8,0,0,1,.112-.246.528.528,0,0,1,.171-.161.367.367,0,0,1,.2-.049.384.384,0,0,1,.2.071.574.574,0,0,1,.162.179l1.9,2.731a.461.461,0,0,0,.14.142.305.305,0,0,0,.335,0,.461.461,0,0,0,.14-.142,1.271,1.271,0,0,1,1.017-.6,1.271,1.271,0,0,1,1.017.6l1.77,2.544a2.773,2.773,0,0,1,0,2.932,4.022,4.022,0,0,1-3.23,1.926Z" transform="translate(1.01 1.502)" fill="#a3acbb"/>
  </g>
</svg>
