<svg xmlns="http://www.w3.org/2000/svg" width="11" height="18" viewBox="0 0 11 18">
  <path id="Vector" d="M5.5,1.125A4.351,4.351,0,0,0,2.389,2.443a4.573,4.573,0,0,0,0,6.364,4.331,4.331,0,0,0,6.223,0,4.573,4.573,0,0,0,0-6.364A4.351,4.351,0,0,0,5.5,1.125ZM0,5.625A5.718,5.718,0,0,1,.889,2.559,5.535,5.535,0,0,1,3.269.484,5.389,5.389,0,0,1,6.37.071,5.45,5.45,0,0,1,9.19,1.453a5.648,5.648,0,0,1,1.627,2.731,5.747,5.747,0,0,1-.092,3.2,5.628,5.628,0,0,1-1.781,2.629A5.435,5.435,0,0,1,6.05,11.222V13.5h2.2a.544.544,0,0,1,.389.165.572.572,0,0,1,0,.8.544.544,0,0,1-.389.165H6.05v2.813a.569.569,0,0,1-.161.4.541.541,0,0,1-.778,0,.569.569,0,0,1-.161-.4V14.625H2.75a.544.544,0,0,1-.389-.165.572.572,0,0,1,0-.8A.544.544,0,0,1,2.75,13.5h2.2V11.222A5.458,5.458,0,0,1,1.421,9.4,5.7,5.7,0,0,1,0,5.625Z" fill="#c1c1c1" fill-rule="evenodd"/>
</svg>
