<svg id="Google" xmlns="http://www.w3.org/2000/svg" width="15.008" height="16" viewBox="0 0 15.008 16">
  <rect id="Google-2" data-name="Google" width="15.008" height="16" fill="none"/>
  <path id="Vector" d="M5.068,7.494,4.91,7.478,2.639,5.644l.014-.1A3.924,3.924,0,0,0,4.217,2.959H0V0H7.185a7.106,7.106,0,0,1,.162,1.63A7.962,7.962,0,0,1,5.068,7.494Z" transform="translate(7.653 6.52)" fill="#fff"/>
  <path id="Vector-2" data-name="Vector" d="M0,2l.031-.089L2.393.008,2.483,0A4.631,4.631,0,0,0,6.836,3.313a4.4,4.4,0,0,0,2.653-.8L11.9,4.465A7.127,7.127,0,0,1,6.836,6.4,7.623,7.623,0,0,1,0,2Z" transform="translate(0.817 9.549)" fill="#fff"/>
  <path id="Vector-3" data-name="Vector" d="M.816,7.2a8.253,8.253,0,0,1,0-7.158L.895,0,3.286,1.935l0,.106a5.354,5.354,0,0,0-.247,1.577A5.094,5.094,0,0,0,3.3,5.194Z" transform="translate(0.001 4.355)" fill="#fffefa"/>
  <path id="Vector-4" data-name="Vector" d="M2.474,6.4,0,4.394A7.623,7.623,0,0,1,6.836,0a7.2,7.2,0,0,1,5.119,2.073L9.8,4.27A4.154,4.154,0,0,0,6.836,3.083,4.649,4.649,0,0,0,2.474,6.4Z" transform="translate(0.817 0)" fill="#fff"/>
</svg>
