<svg id="Location" xmlns="http://www.w3.org/2000/svg" width="17" height="17" viewBox="0 0 17 17">
  <rect id="Location-2" data-name="Location" width="17" height="17" fill="none"/>
  <path id="Vector" d="M6.229,0,5.481,9.622l-4.658.816a.708.708,0,0,1-.816-.816C2.149,1.02,1.741.578,2.591.476Zm9.52,9.758-4.726.884L10.241.544,13.573.1a.718.718,0,0,1,.782.544l1.972,8.262a.729.729,0,0,1-.578.85Z" transform="translate(0.333 4.794)" fill="#efefed"/>
  <path id="Vector-2" data-name="Vector" d="M5.542,10.642,0,9.622.714,0,4.76.544Z" transform="translate(5.848 4.794)" fill="#e4e4e3"/>
  <path id="Vector-3" data-name="Vector" d="M1.535,1.9A1.576,1.576,0,0,1,.107,1.326.69.69,0,0,1,.073.646,1.626,1.626,0,0,1,1.535,0,1.626,1.626,0,0,1,3,.646a.7.7,0,0,1-.034.68A1.576,1.576,0,0,1,1.535,1.9Zm0-1.7C1.059.2.413.34.209.748a.545.545,0,0,0,.034.51,1.526,1.526,0,0,0,1.292.476,1.526,1.526,0,0,0,1.292-.476.545.545,0,0,0,.034-.51C2.657.34,2.045.2,1.535.2Z" transform="translate(9.311 9.384)" fill="#d75548"/>
  <path id="Vector-4" data-name="Vector" d="M.978.85C.3.85-.11.578.026.34c.1-.2.51-.34.952-.34s.85.136.952.34C2.066.578,1.658.85.978.85Z" transform="translate(9.868 9.928)" fill="#e9715f"/>
  <path id="Vector-5" data-name="Vector" d="M14.586,3.536a3.353,3.353,0,0,1-.1.816A2.169,2.169,0,0,1,13.43,5.508a4.664,4.664,0,0,1-2.142.442,7.984,7.984,0,0,1-.918-.034,1.655,1.655,0,0,1-.408-.034,22.3,22.3,0,0,1-5.134-.748,6.885,6.885,0,0,1-1.156-.476c-.34,1.156-.306,2.448.68,3.094l-.238.034C2.482,6.494,3.842,4.25,3.57,3.638a1.069,1.069,0,0,0-.612-.544C2.244,3.5,1.258,3.162,0,4.216c.034-.1.034-.17.068-.272,1.19-.884,2.074-.68,2.72-.952A12.191,12.191,0,0,1,.578,1.734l.034-.17A12.638,12.638,0,0,0,2.992,2.89a.635.635,0,0,0,.272-.68c-.068-.2-.34-.374-.476-.612A1,1,0,0,1,3.06.476,2.537,2.537,0,0,1,4.08,0c.034,0,.1,0,.1.068.068.2-.544.1-1.02.544a.755.755,0,0,0-.238.884c.136.238.374.34.476.612a.762.762,0,0,1-.272.816,1.188,1.188,0,0,1,.68.782,7.114,7.114,0,0,0,1.156-.272,3.123,3.123,0,0,0,.918-.544A4.035,4.035,0,0,0,6.766.51c0-.034.068-.068.1-.068s.068.068.068.1a4.1,4.1,0,0,1-.952,2.448,3.139,3.139,0,0,1-1.02.612,7.653,7.653,0,0,1-1.122.272,1.54,1.54,0,0,1-.1.544,7.672,7.672,0,0,0,1.122.442,20.391,20.391,0,0,0,5.1.782c.136,0,.306.034.442.034A6.082,6.082,0,0,0,13.4,5.3a2.247,2.247,0,0,0,.986-1.054,2.527,2.527,0,0,0,.1-.884,2.409,2.409,0,0,1,.034-.476Z" transform="translate(1.258 6.664)" fill="#fff"/>
  <path id="Vector-6" data-name="Vector" d="M0,.068C0,.034.068,0,.1,0,1.258.17,2.448.374,3.638.544a1.369,1.369,0,0,1,.68.238.964.964,0,0,1,.272.374c.034.068.068.1.1.17a1.7,1.7,0,0,0,.884.646A4.413,4.413,0,0,0,6.7,2.21c.034,0,.068.068.068.1A.073.073,0,0,1,6.7,2.38a6.984,6.984,0,0,1-1.156-.238,2.5,2.5,0,0,1-.952-.714c-.034-.068-.068-.1-.1-.17A.868.868,0,0,0,4.25.918a1.075,1.075,0,0,0-.578-.2C2.516.544,1.326.34.136.17.1.17.068.136,0,.068Z" transform="translate(8.398 7.956)" fill="#fff"/>
  <path id="Vector-7" data-name="Vector" d="M5.669,2.843A2.819,2.819,0,0,1,4,5.427L2.949,7.467a.131.131,0,0,1-.238,0L1.657,5.427A2.841,2.841,0,0,1,2.507.021,2.824,2.824,0,0,1,5.669,2.843Z" transform="translate(8.033 1.577)" fill="#d75548"/>
  <path id="Vector-8" data-name="Vector" d="M3.332,1.666A1.666,1.666,0,1,1,1.666,0,1.666,1.666,0,0,1,3.332,1.666Z" transform="translate(9.18 2.72)" fill="#fff"/>
  <path id="Vector-9" data-name="Vector" d="M1.02.51A.51.51,0,1,1,0,.51.51.51,0,1,1,1.02.51Z" transform="translate(4.352 10.744)" fill="#fff"/>
  <path id="Vector-10" data-name="Vector" d="M.51.255a.255.255,0,1,1-.51,0A.255.255,0,1,1,.51.255Z" transform="translate(4.59 10.999)" fill="#c7c7c7"/>
  <path id="Vector-11" data-name="Vector" d="M1.36.663A.68.68,0,0,1,0,.663.68.68,0,0,1,1.36.663Z" transform="translate(3.502 8.959)" fill="#fff"/>
  <path id="Vector-12" data-name="Vector" d="M.782.382A.391.391,0,0,1,0,.382.391.391,0,0,1,.782.382Z" transform="translate(3.774 9.239)" fill="#c7c7c7"/>
</svg>
