<svg xmlns="http://www.w3.org/2000/svg" width="20" height="20" viewBox="0 0 20 20">
  <g id="_40" data-name="40" transform="translate(-49 -440)">
    <path id="Vector" d="M20,17c0,2.78-7.65,3-10,3S0,19.78,0,17c0-2.11,4.4-2.74,7.55-2.93C6,11.61,4,8,4,6A6,6,0,0,1,16,6c0,2-2,5.61-3.55,8.07C15.6,14.26,20,14.89,20,17ZM9.87,14h.26C11.9,11.24,14,7.5,14,6A4,4,0,1,0,6,6C6,7.5,8.1,11.24,9.87,14ZM10,18a22.55,22.55,0,0,0,7.62-1,20.63,20.63,0,0,0-6.43-1l-.37.55a1,1,0,0,1-1.64,0L8.81,16a20.63,20.63,0,0,0-6.43,1A22.55,22.55,0,0,0,10,18Z" transform="translate(49 440)" fill="#fff8f8"/>
    <path id="Vector-2" data-name="Vector" d="M5.34,2.67a2.67,2.67,0,1,1-.45-1.483A2.68,2.68,0,0,1,5.34,2.67ZM2,2.67A.67.67,0,1,0,2.113,2.3.67.67,0,0,0,2,2.67Z" transform="translate(56.33 443.33)" fill="#fff"/>
  </g>
</svg>
