<svg xmlns="http://www.w3.org/2000/svg" width="21" height="21" viewBox="0 0 21 21">
  <path id="schedule" d="M11.306,3.227v.807a.825.825,0,0,1-1.536.342.851.851,0,0,1-.076-.342V3.227H7.276a.842.842,0,0,1-.609-1.335.709.709,0,0,1,.609-.279q1.208,0,2.418-.007v-.8a.7.7,0,0,1,.04-.253A.825.825,0,0,1,10.516,0a.806.806,0,0,1,.79.807V1.6c1.611-.01,3.224-.019,4.836-.01V.807A.8.8,0,0,1,16.932,0h.031a.8.8,0,0,1,.79.807V1.6l.866.014A2.486,2.486,0,0,1,20.977,4q.046,7.29,0,14.581a2.493,2.493,0,0,1-2.388,2.39q-8.089.05-16.179,0a2.481,2.481,0,0,1-2.388-2.39Q-.023,11.294.023,4A2.479,2.479,0,0,1,2.438,1.613h.809V.807a.685.685,0,0,1,.04-.253A.825.825,0,0,1,4.068,0a.8.8,0,0,1,.79.807V4.034A.825.825,0,0,1,3.336,4.4a.837.837,0,0,1-.09-.371v-.81c-.276,0-.551,0-.826,0a.836.836,0,0,0-.786.787q-.134,7.279,0,14.561a.835.835,0,0,0,.786.787q8.078.15,16.159,0a.836.836,0,0,0,.786-.787q.134-7.279,0-14.561a.836.836,0,0,0-.809-.787h-.8v.807a.828.828,0,0,1-1.522.371.848.848,0,0,1-.09-.371V3.227H11.306ZM4.052,16.135a.807.807,0,1,1-.805.807A.807.807,0,0,1,4.052,16.135Zm3.224,0a.807.807,0,1,1-.806.807A.807.807,0,0,1,7.276,16.135Zm3.224,0a.807.807,0,1,1-.806.807A.807.807,0,0,1,10.5,16.135ZM4.052,12.908a.806.806,0,1,1-.805.807A.806.806,0,0,1,4.052,12.908Zm3.224,0a.806.806,0,1,1-.806.807A.806.806,0,0,1,7.276,12.908Zm3.224,0a.806.806,0,1,1-.806.807A.807.807,0,0,1,10.5,12.908Zm3.224,0a.806.806,0,1,1-.806.807A.807.807,0,0,1,13.724,12.908Zm3.224,0a.806.806,0,1,1-.805.807A.806.806,0,0,1,16.947,12.908ZM7.276,9.681a.806.806,0,1,1-.806.806.806.806,0,0,1,.806-.806Zm3.224,0a.806.806,0,1,1-.806.806.807.807,0,0,1,.806-.806Zm3.224,0a.806.806,0,1,1-.806.806.807.807,0,0,1,.806-.806Zm3.224,0a.806.806,0,1,1-.805.806.806.806,0,0,1,.805-.806Z" transform="translate(0)" fill="#fff" fill-rule="evenodd"/>
</svg>
