<svg xmlns="http://www.w3.org/2000/svg" width="23.133" height="21.812" viewBox="0 0 23.133 21.812">
  <path id="Vector" d="M18.348,4.39a2.949,2.949,0,0,1,1.206.664A1.327,1.327,0,0,1,20,6a1.327,1.327,0,0,1-.446.945,2.949,2.949,0,0,1-1.206.664l-14,4.2A4.927,4.927,0,0,1,3,12a4.664,4.664,0,0,1-1.431-.218,2.938,2.938,0,0,1-1.084-.6,1.408,1.408,0,0,1-.475-.839,1.19,1.19,0,0,1,.25-.873l2.4-3.223a.408.408,0,0,0,0-.492L.259,2.529a1.158,1.158,0,0,1-.2-1.079A1.817,1.817,0,0,1,.93.5,4.037,4.037,0,0,1,2.553.02,4.811,4.811,0,0,1,4.339.189l14,4.2Zm-.5,1.921a.407.407,0,0,0,0-.626.976.976,0,0,0-.4-.221l-14-4.2a1.609,1.609,0,0,0-.592-.052,1.339,1.339,0,0,0-.535.16.6.6,0,0,0-.287.315.385.385,0,0,0,.063.357l2.39,3.223a.957.957,0,0,1,.08.132h6.89a1.4,1.4,0,0,1,.707.176A.52.52,0,0,1,12.459,6a.52.52,0,0,1-.293.424,1.4,1.4,0,0,1-.707.176H4.569a.957.957,0,0,1-.08.132L2.1,9.953a.385.385,0,0,0-.063.357.6.6,0,0,0,.287.315,1.338,1.338,0,0,0,.535.16,1.61,1.61,0,0,0,.592-.052l14-4.2a.976.976,0,0,0,.4-.221Z" transform="translate(0 12.393) rotate(-38.292)" fill="#fff"/>
</svg>
