<svg id="time" xmlns="http://www.w3.org/2000/svg" width="21" height="21" viewBox="0 0 21 21">
  <rect id="time-2" data-name="time" width="21" height="21" fill="none"/>
  <path id="Vector" d="M9.844,19.688A9.844,9.844,0,0,1,2.446,3.35a.329.329,0,0,1,.493.434A9.164,9.164,0,1,0,5.182,1.925a.328.328,0,0,1-.333-.566A9.844,9.844,0,1,1,9.844,19.688Z" transform="translate(0.656 0.656)" fill="#f4fbff"/>
  <path id="Vector-2" data-name="Vector" d="M8.2,16.406a8.2,8.2,0,1,1,8.2-8.2,8.212,8.212,0,0,1-8.2,8.2ZM8.2.656A7.547,7.547,0,1,0,15.75,8.2,7.556,7.556,0,0,0,8.2.656Z" transform="translate(2.297 2.297)" fill="#f4fbff"/>
  <path id="Vector-3" data-name="Vector" d="M9.68,1.487a.324.324,0,0,1-.328-.328.31.31,0,0,1,.1-.23.329.329,0,0,1,.459,0,.318.318,0,0,1,0,.459.308.308,0,0,1-.23.1Zm-6.234,10.8a.339.339,0,0,1-.23-.1.33.33,0,0,1-.1-.23.353.353,0,0,1,.092-.236.349.349,0,0,1,.466,0,.329.329,0,0,1,.1.236.353.353,0,0,1-.093.23.36.36,0,0,1-.236.1Zm8.517-8.517a.326.326,0,0,1-.23-.093.327.327,0,1,1,.46-.466.336.336,0,0,1,.1.23.335.335,0,0,1-.328.328Zm-10.8,6.234a.337.337,0,0,1-.23-.093.351.351,0,0,1-.1-.236.329.329,0,0,1,.565-.23.334.334,0,0,1,0,.46.325.325,0,0,1-.237.1ZM12.8,6.888a.326.326,0,0,1-.23-.558.326.326,0,0,1,.558.23.326.326,0,0,1-.093.23.33.33,0,0,1-.236.1Zm-12.469,0a.31.31,0,0,1-.23-.1.319.319,0,0,1,0-.46.337.337,0,0,1,.459-.007.334.334,0,0,1,.1.237.326.326,0,0,1-.093.23.33.33,0,0,1-.236.1Zm11.635,3.117a.351.351,0,0,1-.236-.093.355.355,0,0,1-.093-.236.326.326,0,0,1,.558-.23.336.336,0,0,1,.1.23.335.335,0,0,1-.328.328ZM1.162,3.771a.337.337,0,0,1-.23-.093.351.351,0,0,1-.1-.236.329.329,0,0,1,.565-.23.334.334,0,0,1,0,.46.337.337,0,0,1-.237.1ZM9.68,12.289a.331.331,0,0,1-.23-.092.344.344,0,0,1-.1-.236.353.353,0,0,1,.092-.236.343.343,0,0,1,.466,0,.329.329,0,0,1,.1.236.353.353,0,0,1-.093.23.33.33,0,0,1-.236.1ZM3.445,1.487a.312.312,0,0,1-.23-.1.319.319,0,0,1,0-.46A.335.335,0,0,1,3.674.923a.329.329,0,0,1,.1.236.309.309,0,0,1-.1.23.318.318,0,0,1-.23.1ZM6.563,13.123a.34.34,0,0,1-.23-.093.344.344,0,0,1-.1-.236.325.325,0,0,1,.558-.23.328.328,0,0,1-.23.558Zm0-12.469a.34.34,0,0,1-.23-.093.332.332,0,0,1-.1-.236A.318.318,0,0,1,6.326.1a.332.332,0,0,1,.466,0,.31.31,0,0,1,.1.23A.326.326,0,0,1,6.8.556a.33.33,0,0,1-.236.1Zm4.176,2.194L7.187,6.4a.64.64,0,0,0-.464-.464l3.552-3.552a.328.328,0,0,1,.464.464ZM5.938,6.4,1.922,2.384a.328.328,0,1,1,.464-.464L6.4,5.936A.64.64,0,0,0,5.938,6.4Z" transform="translate(3.938 3.94)" fill="#f4fbff"/>
  <path id="Vector-4" data-name="Vector" d="M.984,1.969A.984.984,0,1,1,1.969.984a.986.986,0,0,1-.984.984Zm0-1.312a.328.328,0,1,0,.328.328A.329.329,0,0,0,.984.656Z" transform="translate(9.516 9.516)" fill="#f4fbff"/>
  <g id="Group">
    <path id="Vector-5" data-name="Vector" d="M.656.328A.328.328,0,1,1,.328,0,.329.329,0,0,1,.656.328Z" transform="translate(4.266 2.625)" fill="#f4fbff"/>
  </g>
</svg>
